<svg width="3475" height="1883" viewBox="0 0 3475 1883" fill="none" xmlns="http://www.w3.org/2000/svg">
<path fill-rule="evenodd" clip-rule="evenodd" d="M828.593 107.166C908.777 98.6764 993.515 104.866 1056.19 155.598C1124.67 211.038 1166.95 295.119 1169.58 383.193C1172.28 473.68 1135.43 562.029 1070.19 624.795C1006.12 686.448 916.761 722.833 828.593 711.276C748.199 700.738 703.184 623.116 642.987 568.798C576.83 509.101 464.618 472.302 465.001 383.193C465.384 294.097 573.612 253.049 644.576 199.176C701.359 156.068 757.696 114.671 828.593 107.166Z" fill="#69401D"/>
<path fill-rule="evenodd" clip-rule="evenodd" d="M419.79 1125.05C513.823 1117.06 605.338 1155.29 676.324 1219.97C752.605 1289.47 817.189 1381.44 817 1486.95C816.811 1592.32 752.989 1685.27 675.37 1752.93C604.452 1814.76 512.222 1829.26 419.79 1833.22C321.805 1837.43 218.953 1839.37 142.209 1775.83C57.8248 1705.96 -11.3546 1598.36 1.55739 1486.95C13.8391 1380.97 123.093 1328.49 201.961 1260.25C269.54 1201.77 332.194 1132.49 419.79 1125.05Z" fill="#C2966A"/>
<path fill-rule="evenodd" clip-rule="evenodd" d="M3151.07 1226.97C3237.83 1236.03 3285.72 1324.81 3340.68 1392.56C3387.32 1450.06 3437.44 1508.14 3439.2 1582.17C3441 1657.68 3402.24 1726.54 3349.94 1781.04C3296.39 1836.86 3228.39 1884.96 3151.07 1882.46C3075.41 1880.01 3018.43 1821.85 2964.67 1768.57C2910.54 1714.94 2856.57 1657.88 2848.03 1582.17C2838.55 1498.2 2862.41 1412.63 2917.25 1348.35C2976.51 1278.9 3060.27 1217.49 3151.07 1226.97Z" fill="#69401D"/>
<path fill-rule="evenodd" clip-rule="evenodd" d="M3113.85 0.0533065C3195.57 -2.45442 3244.03 84.0866 3304.29 139.345C3369.33 198.996 3464.82 241.945 3473.41 329.783C3482.34 421.056 3413.54 499.936 3345.59 561.527C3281.37 619.742 3200.53 655.028 3113.85 655.7C3026.46 656.377 2937.63 629.477 2878.48 565.148C2821.26 502.909 2802.82 413.561 2814.19 329.783C2824.26 255.651 2884.44 206.049 2934.75 150.685C2989.29 90.6714 3032.79 2.54062 3113.85 0.0533065Z" fill="#FFCC99"/>
<path fill-rule="evenodd" clip-rule="evenodd" d="M2051.59 924.166C2131.78 915.676 2216.52 921.866 2279.19 972.598C2347.67 1028.04 2389.95 1112.12 2392.58 1200.19C2395.28 1290.68 2358.43 1379.03 2293.19 1441.79C2229.12 1503.45 2139.76 1539.83 2051.59 1528.28C1971.2 1517.74 1926.18 1440.12 1865.99 1385.8C1799.83 1326.1 1687.62 1289.3 1688 1200.19C1688.38 1111.1 1796.61 1070.05 1867.58 1016.18C1924.36 973.068 1980.7 931.671 2051.59 924.166Z" fill="#FFD7A7"/>
</svg>
